<?xml version="1.0" standalone="no"?>
<!DOCTYPE svg PUBLIC "-//W3C//DTD SVG 20010904//EN"
 "http://www.w3.org/TR/2001/REC-SVG-20010904/DTD/svg10.dtd">
<svg version="1.0" xmlns="http://www.w3.org/2000/svg"
 width="20" height="20" viewBox="0 0 512.000000 512.000000"
 preserveAspectRatio="xMidYMid meet">

<g transform="translate(0.000000,512.000000) scale(0.100000,-0.100000)"
fill="#000000" stroke="none">
<path d="M2345 5110 c-499 -56 -943 -269 -1295 -620 -334 -335 -546 -768 -605
-1240 -23 -177 -16 -453 14 -622 94 -521 388 -1088 855 -1648 279 -335 744
-792 899 -884 225 -133 518 -123 734 25 104 72 445 397 643 614 617 677 964
1294 1075 1915 26 147 31 436 10 600 -119 944 -851 1699 -1791 1845 -119 19
-428 27 -539 15z m396 -170 c460 -46 882 -244 1203 -566 527 -529 707 -1278
479 -1997 -163 -514 -483 -1017 -1007 -1579 -151 -163 -462 -458 -554 -527
-136 -103 -324 -126 -494 -61 -77 29 -127 67 -336 262 -740 686 -1230 1423
-1382 2074 -153 657 45 1347 526 1828 414 412 994 622 1565 566z"/>
<path d="M904 3146 c-46 -21 -58 -65 -49 -189 16 -239 66 -433 155 -607 96
-185 227 -313 424 -410 191 -94 388 -140 612 -143 116 -2 124 -1 146 21 22 22
23 30 21 150 -3 256 -72 511 -189 699 -121 195 -305 331 -555 413 -180 59
-499 97 -565 66z m378 -191 c300 -62 520 -215 632 -442 70 -142 120 -328 128
-483 l3 -65 -55 3 c-310 17 -592 142 -743 327 -118 145 -217 438 -217 640 l0
51 87 -8 c47 -4 122 -15 165 -23z"/>
<path d="M3986 3149 c-552 -58 -884 -313 -1020 -782 -40 -136 -58 -261 -60
-399 -1 -120 0 -129 22 -150 22 -22 30 -23 146 -21 328 4 645 115 840 294 204
186 325 485 351 866 14 199 -17 220 -279 192z m94 -324 c-28 -200 -110 -411
-207 -530 -151 -185 -433 -310 -743 -327 l-55 -3 3 60 c12 233 100 486 219
630 150 182 403 298 706 323 l82 7 3 -40 c2 -22 -2 -76 -8 -120z"/>
</g>
</svg>
